# xmcd
#
# Track frame offsets:
#	150
#	15678
#	31236
#	49311
#	65486
#	81898
#	99575
#	119309
#
# Disc length: 1819 seconds
#
# Revision: 1
# Processed by: cddbd v1.5.2PL0 Copyright (c) Steve Scherf et al.
# Submitted via: audiograbber 1.83.01
#
DISCID=63071908
DTITLE=Various Artist - Nu Country Traxx 002
DYEAR=1999
DGENRE=Country
TTITLE0=George Jones - Choices
TTITLE1=Monte Warden - It's Only Love
TTITLE2=Doug Stone - Make Up In Love
TTITLE3=T Graham Brown - Never In A Million Tears
TTITLE4=Sherrie Austin - Never Been Kissed
TTITLE5=Matt King - From Your Knees
TTITLE6=Confederate Railroad - Cowboy Cadillac
TTITLE7=Brooks and Dunn - South Of Santa Fe
EXTD=
EXTT0=
EXTT1=
EXTT2=
EXTT3=
EXTT4=
EXTT5=
EXTT6=
EXTT7=
PLAYORDER=
